<svg xmlns="http://www.w3.org/2000/svg" xmlns:xlink="http://www.w3.org/1999/xlink" xmlns:serif="http://www.serif.com/" version="1.1" xml:space="preserve" style="fill-rule:evenodd;clip-rule:evenodd;stroke-linejoin:round;stroke-miterlimit:2;" viewBox="463.56 275.33 6051.07 3257.6">
    <g id="Layer-1" serif:id="Layer 1" transform="matrix(4.16667,0,0,4.16667,0,0)">
        <g transform="matrix(1,0,0,1,613.241,782.891)">
            <path d="M0,20.991L-11.968,33.235L-11.968,63.554L-34.983,63.554L-34.983,-42.563L-11.968,-42.563L-11.968,5.54L-1.841,-7.652L26.622,-42.563L54.931,-42.563L15.267,4.593L56.082,63.554L28.693,63.554L0,20.991Z" style="fill:rgb(249,115,22);fill-rule:nonzero;"/>
        </g>
        <g transform="matrix(1,0,0,1,744.047,795.793)">
            <path d="M0,-4.811C0,-15.937 -2.098,-24.391 -6.291,-30.174C-10.485,-35.956 -16.469,-38.847 -24.243,-38.847C-31.966,-38.847 -37.925,-35.992 -42.118,-30.284C-46.313,-24.574 -48.436,-16.205 -48.486,-5.175L-48.486,-0C-48.486,10.835 -46.39,19.241 -42.195,25.216C-38.002,31.193 -31.966,34.181 -24.089,34.181C-16.367,34.181 -10.434,31.302 -6.291,25.544C-2.148,19.787 -0.051,11.394 0,0.364L0,-4.811ZM23.323,-0C23.323,10.447 21.377,19.605 17.492,27.476C13.604,35.347 8.042,41.421 0.806,45.697C-6.432,49.973 -14.73,52.111 -24.089,52.111C-33.347,52.111 -41.608,49.997 -48.87,45.77C-56.133,41.543 -61.758,35.505 -65.748,27.659C-69.737,19.812 -71.758,10.786 -71.809,0.583L-71.809,-4.665C-71.809,-15.111 -69.827,-24.307 -65.863,-32.251C-61.9,-40.196 -56.299,-46.292 -49.062,-50.544C-41.825,-54.796 -33.552,-56.922 -24.243,-56.922C-14.935,-56.922 -6.662,-54.796 0.576,-50.544C7.812,-46.292 13.413,-40.196 17.377,-32.251C21.34,-24.307 23.323,-15.135 23.323,-4.738L23.323,-0Z" style="fill:rgb(249,115,22);fill-rule:nonzero;"/>
        </g>
        <g transform="matrix(1,0,0,1,823.835,837.482)">
            <path d="M0,-115.228L11.201,-125.65L30.15,-125.65L30.15,-124.848L6.981,-104.369L-7.059,-104.369L-30.228,-124.994L-30.228,-125.65L-11.278,-125.65L0,-115.228ZM18.183,-18.876C18.183,-23.006 16.647,-26.176 13.579,-28.388C10.511,-30.598 4.986,-32.931 -2.992,-35.385C-10.971,-37.837 -17.288,-40.255 -21.941,-42.636C-34.627,-49.147 -40.968,-57.916 -40.968,-68.947C-40.968,-74.68 -39.269,-79.794 -35.866,-84.29C-32.466,-88.783 -27.58,-92.293 -21.213,-94.821C-14.846,-97.346 -7.698,-98.611 0.229,-98.611C8.209,-98.611 15.317,-97.237 21.558,-94.493C27.797,-91.747 32.644,-87.872 36.096,-82.868C39.548,-77.863 41.274,-72.178 41.274,-65.813L18.259,-65.813C18.259,-70.671 16.647,-74.45 13.426,-77.147C10.203,-79.843 5.677,-81.192 -0.153,-81.192C-5.78,-81.192 -10.153,-80.062 -13.272,-77.802C-16.393,-75.543 -17.952,-72.566 -17.952,-68.874C-17.952,-65.424 -16.124,-62.534 -12.467,-60.202C-8.811,-57.869 -3.428,-55.682 3.683,-53.642C16.774,-49.9 26.314,-45.26 32.299,-39.721C38.282,-34.182 41.274,-27.283 41.274,-19.023C41.274,-9.839 37.617,-2.635 30.304,2.587C22.989,7.811 13.144,10.422 0.767,10.422C-7.825,10.422 -15.65,8.928 -22.709,5.94C-29.767,2.952 -35.15,-1.141 -38.858,-6.341C-42.567,-11.54 -44.42,-17.565 -44.42,-24.415L-21.328,-24.415C-21.328,-12.706 -13.963,-6.851 0.767,-6.851C6.239,-6.851 10.511,-7.908 13.579,-10.022C16.647,-12.135 18.183,-15.087 18.183,-18.876" style="fill:rgb(249,115,22);fill-rule:nonzero;"/>
        </g>
        <g transform="matrix(-1,0,0,1,1787.3,656.034)">
            <rect x="882.141" y="84.295" width="23.016" height="106.117" style="fill:rgb(249,115,22);"/>
        </g>
        <g transform="matrix(1,0,0,1,1014.17,775.676)">
            <path d="M0,35.422C-0.87,46.84 -5.307,55.828 -13.311,62.388C-21.316,68.947 -31.865,72.228 -44.957,72.228C-59.278,72.228 -70.543,67.649 -78.752,58.489C-86.961,49.331 -91.065,36.759 -91.065,20.773L-91.065,14.285C-91.065,4.082 -89.174,-4.906 -85.388,-12.682C-81.604,-20.454 -76.195,-26.42 -69.162,-30.574C-62.13,-34.728 -53.96,-36.806 -44.65,-36.806C-31.762,-36.806 -21.38,-33.525 -13.503,-26.966C-5.627,-20.406 -1.074,-11.198 0.153,0.656L-22.862,0.656C-23.426,-6.194 -25.433,-11.162 -28.885,-14.248C-32.337,-17.333 -37.593,-18.876 -44.65,-18.876C-52.322,-18.876 -58.064,-16.264 -61.874,-11.041C-65.685,-5.817 -67.641,2.285 -67.743,13.265L-67.743,21.282C-67.743,32.75 -65.915,41.131 -62.258,46.427C-58.602,51.724 -52.834,54.371 -44.957,54.371C-37.849,54.371 -32.542,52.829 -29.038,49.743C-25.535,46.658 -23.527,41.884 -23.016,35.422L0,35.422Z" style="fill:rgb(249,115,22);fill-rule:nonzero;"/>
        </g>
        <g transform="matrix(1,0,0,1,1096.49,786.318)">
            <path d="M0,14.139L-44.189,14.139L-44.189,42.564L7.672,42.564L7.672,60.128L-67.205,60.128L-67.205,-45.989L7.519,-45.989L7.519,-28.278L-44.189,-28.278L-44.189,-2.988L0,-2.988L0,14.139Z" style="fill:rgb(249,115,22);fill-rule:nonzero;"/>
        </g>
        <g transform="matrix(1,0,0,1,147.494,654.316)">
            <path d="M0,-199.308L-36.239,-199.308L-36.239,0L81.991,0L81.991,-31.629L0,-31.629L0,-199.308Z" style="fill:rgb(45,46,45);fill-rule:nonzero;"/>
        </g>
        <g transform="matrix(1,0,0,1,379.652,534.544)">
            <path d="M0,44.532C0,60.915 -4.149,72.687 -12.442,79.85C-20.728,87.02 -31.434,90.597 -44.531,90.597C-57.636,90.597 -68.328,87.02 -76.621,79.85C-84.913,72.687 -89.063,60.915 -89.063,44.532L-89.063,-79.536L-125.295,-79.536L-125.295,44.532C-125.295,69.919 -118.237,89.523 -104.107,103.34C-89.984,117.163 -70.127,124.068 -44.531,124.068C-18.942,124.068 0.921,117.163 15.044,103.34C29.174,89.523 36.232,69.919 36.232,44.532L36.232,-79.536L0,-79.536L0,44.532Z" style="fill:rgb(45,46,45);fill-rule:nonzero;"/>
        </g>
        <g transform="matrix(1,0,0,1,774.119,502.148)">
            <path d="M0,105.334C-9.521,117.519 -22.367,123.607 -38.541,123.607C-54.715,123.607 -67.617,117.519 -77.235,105.334C-86.86,93.157 -91.672,75.651 -91.672,52.824C-91.672,29.996 -86.86,12.393 -77.235,-0C-67.617,-12.387 -54.715,-18.58 -38.541,-18.58C-22.367,-18.58 -9.521,-12.387 0,-0C9.52,12.393 14.276,29.996 14.276,52.824C14.276,75.651 9.52,93.157 0,105.334M-1.995,-44.525C-13.05,-48.926 -25.234,-51.13 -38.541,-51.13C-66.39,-51.13 -88.192,-42.635 -103.954,-25.645C-120.742,-7.624 -129.132,18.377 -129.132,52.363C-129.132,85.938 -120.742,111.834 -103.954,130.059C-87.983,147.669 -66.285,156.464 -38.848,156.464C-11.208,156.464 10.594,147.871 26.565,130.672C43.346,112.246 51.743,86.141 51.743,52.363C51.743,18.789 43.346,-7.01 26.565,-25.024C18.579,-33.624 9.06,-40.124 -1.995,-44.525" style="fill:rgb(45,46,45);fill-rule:nonzero;"/>
        </g>
        <g transform="matrix(1,0,0,1,1094.88,654.316)">
            <path d="M0,-199.308L-36.238,-199.308L-36.238,0L81.992,0L81.992,-31.629L0,-31.629L0,-199.308Z" style="fill:rgb(45,46,45);fill-rule:nonzero;"/>
        </g>
        <g transform="matrix(1,0,0,1,1327.05,534.544)">
            <path d="M0,44.532C0,60.915 -4.149,72.687 -12.442,79.85C-20.729,87.02 -31.434,90.597 -44.532,90.597C-57.637,90.597 -68.328,87.02 -76.621,79.85C-84.914,72.687 -89.063,60.915 -89.063,44.532L-89.063,-79.536L-125.296,-79.536L-125.296,44.532C-125.296,69.919 -118.237,89.523 -104.107,103.34C-89.984,117.163 -70.128,124.068 -44.532,124.068C-18.942,124.068 0.921,117.163 15.044,103.34C29.174,89.523 36.231,69.919 36.231,44.532L36.231,-79.536L0,-79.536L0,44.532Z" style="fill:rgb(45,46,45);fill-rule:nonzero;"/>
        </g>
        <g transform="matrix(1,0,0,1,1516.37,493.701)">
            <path d="M0,121.921C-5.224,126.636 -13.663,128.985 -25.338,128.985L-68.942,128.985L-68.942,77.082L-25.338,77.082C-14.081,77.082 -5.733,79.495 -0.307,84.301C5.112,89.113 7.832,95.411 7.832,103.188C7.832,110.971 5.217,117.213 0,121.921M-68.942,-7.371L-25.952,-7.371C-15.1,-7.371 -6.96,-4.958 -1.534,-0.153C3.885,4.66 6.604,11.111 6.604,19.194C6.604,27.285 3.836,33.681 -1.687,38.388C-7.219,43.103 -15.406,45.453 -26.259,45.453L-68.942,45.453L-68.942,-7.371ZM36.086,75.087C28.714,67.206 19.396,62.143 8.14,59.89C19.396,56.612 28.149,50.983 34.397,42.998C40.64,35.013 43.758,25.388 43.758,14.131C43.758,-1.017 38.024,-13.404 26.565,-23.029C14.479,-33.47 -2.608,-38.693 -24.724,-38.693L-105.181,-38.693L-105.181,160.614L-24.417,160.614C-10.287,160.614 1.381,158.976 10.595,155.697C34.956,146.693 47.141,129.906 47.141,105.335C47.141,93.054 43.45,82.969 36.086,75.087" style="fill:rgb(45,46,45);fill-rule:nonzero;"/>
        </g>
        <g transform="matrix(1,0,0,1,1343.17,654.315)">
            <path d="M0,-581.898L-443.294,-117.309L-443.294,-199.307L-479.841,-199.307L-479.841,0L-443.294,0L-443.294,-67.838L-443.354,-67.898L-129.911,-385.042L-45.414,-396.648L33.313,-470.879L-10.838,-503.697L35.556,-549.927L0,-581.898Z" style="fill:rgb(45,46,45);fill-rule:nonzero;"/>
        </g>
        <g transform="matrix(-0.658875,0.752253,0.752253,0.658875,1274.62,219.238)">
            <path d="M-102.765,-115.125L5.441,-115.125L73.173,-70.54L-94.862,-65.9L-102.765,-115.125Z" style="fill:rgb(45,46,45);fill-rule:nonzero;"/>
        </g>
        <g transform="matrix(0.643207,0.765692,0.765692,-0.643207,966.594,559.841)">
            <path d="M3.212,-45.068L85.525,-45.068L115.747,-9.091L0.168,-10.056L3.212,-45.068Z" style="fill:rgb(45,46,45);fill-rule:nonzero;"/>
        </g>
        <g transform="matrix(1,0,0,1,541.17,564.298)">
            <path d="M0,-19.274L-0.29,-19.614L87.539,-109.291L37.79,-109.291L-40.826,-27.293L-40.826,-109.291L-77.372,-109.291L-77.372,90.017L-40.826,90.017L-40.826,22.178L-40.922,22.081L0,-19.274Z" style="fill:rgb(45,46,45);fill-rule:nonzero;"/>
        </g>
        <g transform="matrix(0.643207,0.765692,0.765692,-0.643207,567.058,559.841)">
            <path d="M3.212,-45.068L85.525,-45.068L115.747,-9.091L0.168,-10.056L3.212,-45.068Z" style="fill:rgb(45,46,45);fill-rule:nonzero;"/>
        </g>
    </g>
</svg>