
<svg xmlns="http://www.w3.org/2000/svg" xmlns:xlink="http://www.w3.org/1999/xlink" version="1.1" width="24" height="24" viewBox="0 0 1080 1080" xml:space="preserve">
<g transform="matrix(1 0 0 1 540 540)" id="c665a34d-c129-48f7-ac71-ea985aca254c">
<rect style="stroke: none; stroke-width: 1; stroke-dasharray: none; stroke-linecap: butt; stroke-dashoffset: 0; stroke-linejoin: miter; stroke-miterlimit: 4; fill: rgb(255,255,255); fill-rule: nonzero; opacity: 1; visibility: hidden;" vector-effect="non-scaling-stroke"  x="-540" y="-540" rx="0" ry="0" width="1080" height="1080" />
</g>
<g transform="matrix(1 0 0 1 540 540)" id="a9ecb84a-12c4-47f1-9785-82f67785acb6"  >
</g>
<g transform="matrix(4.05 0 0 4.05 540 540)" id="a4f6d70f-8b57-44db-8c7e-f57743abe295"  >
<path style="stroke: rgb(0,0,0); stroke-width: 0; stroke-dasharray: none; stroke-linecap: butt; stroke-dashoffset: 0; stroke-linejoin: miter; stroke-miterlimit: 4; fill: rgb(249,115,22); fill-rule: nonzero; opacity: 1;" vector-effect="non-scaling-stroke"  transform=" translate(-79.75, -44.18)" d="M 0 88.363 L 9.675 13.652 L 75.272 -62.523 L 105.136 -27.117 L 0 88.363 Z M -44.985 -82.86 L -44.985 155.403 L 157.148 -56.441 L 190.182 -26.739 L 147.08 16.212 L 188.098 46.7 L 114.958 115.664 L 36.456 126.446 L -7.798 171.223 L 204.479 171.223 L 204.479 -82.86 L -44.985 -82.86 Z" stroke-linecap="round" />
</g>
</svg>